<?xml version="1.0" encoding="UTF-8"?>
<svg width="800" height="800" viewBox="0 0 800 800" fill="none" xmlns="http://www.w3.org/2000/svg">
  <rect width="800" height="800" fill="#000000"/>
  <path d="M400 200 C250 200 200 350 200 400 C200 550 350 600 400 600 C550 600 600 450 600 400 C600 250 450 200 400 200" fill="#FFD700"/>
  <path d="M400 200 C550 200 600 350 600 400 L400 400 L400 200" fill="#001F3F"/>
  <circle cx="350" cy="350" r="20" fill="#FFD700"/>
  <circle cx="450" cy="450" r="20" fill="#FFD700"/>
  <path d="M380 500 Q400 520 420 500" stroke="#FFD700" stroke-width="10"/>
  <circle cx="600" cy="250" r="5" fill="#FFD700"/>
  <circle cx="650" cy="300" r="5" fill="#FFD700"/>
  <circle cx="550" cy="200" r="5" fill="#FFD700"/>
</svg>