<svg xmlns="http://www.w3.org/2000/svg" viewBox="0 0 24 24" fill="none" stroke="currentColor" stroke-width="2" stroke-linecap="round" stroke-linejoin="round">
  <path d="M12 2C8 2 7 6 7 9c0 2 1 3 3 3s3-1 3-3c0-3-1-7-5-7Z"></path>
  <path d="M13 12h-3c-1.06 0-2.09.37-2.91 1.06 A5.51 5.51 0 0 0 4 18c0 1.65.67 3.22 1.88 4.38" ></path>
  <path d="m13.58 14.29 2.89-2.85a1.94 1.94 0 0 1 2.8.04 2.02 2.02 0 0 1-.05 2.78l-2.89 2.85a1.94 1.94 0 0 1-2.8-.04 2.02 2.02 0 0 1 .05-2.78Z"></path>
  <path d="M9.5 18a2.5 2.5 0 1 0 5 0 2.5 2.5 0 1 0-5 0Z"></path>
  <path d="M15 22v-4"></path>
  <path d="M9 22v-4"></path>
</svg> 